<svg width="104" height="56" viewBox="0 0 104 56" fill="none" xmlns="http://www.w3.org/2000/svg">
<path d="M38 0.75V18.875H28.6666V4.375H19.3333V18.875H9.99996V11.625H0.666626V55.125H9.99996V47.875H19.3333V55.125H28.6666V47.875H38V55.125H47.3333V47.875H56.6666V55.125H66V47.875H75.3333V55.125H84.6666V47.875H94V55.125H103.333V11.625H94V18.875H84.6666V4.375H75.3333V18.875H66V0.75H56.6666V18.875H47.3333V0.75H38ZM9.99996 26.125H19.3333V40.625H9.99996V26.125ZM28.6666 26.125H38V40.625H28.6666V26.125ZM47.3333 26.125H56.6666V40.625H47.3333V26.125ZM66 26.125H75.3333V40.625H66V26.125ZM84.6666 26.125H94V40.625H84.6666V26.125Z" fill="#EE8383"/>
</svg>
