<svg width="154" height="58" viewBox="0 0 154 58" fill="none" xmlns="http://www.w3.org/2000/svg">
<path d="M138.333 4.12506H48.02C46.0061 2.91955 43.5676 1.94105 40.8457 1.24626C38.1239 0.551464 35.1728 0.154192 32.1636 0.0774573C29.1543 0.000722056 26.1467 0.246046 23.3149 0.799223C20.4831 1.3524 17.8835 2.20243 15.6667 3.30006C10.76 5.61006 8.00004 8.91006 8.00004 12.3751V49.5001C5.96671 49.5001 4.01667 49.9347 2.57889 50.7082C1.14111 51.4818 0.333374 52.531 0.333374 53.6251V57.7501H61.6667V53.6251C61.6667 52.531 60.859 51.4818 59.4212 50.7082C57.9834 49.9347 56.0334 49.5001 54 49.5001V20.6251H138.333C142.4 20.6251 146.3 19.7559 149.176 18.2087C152.051 16.6615 153.667 14.5631 153.667 12.3751C153.667 10.187 152.051 8.0886 149.176 6.54143C146.3 4.99425 142.4 4.12506 138.333 4.12506ZM42.5 49.5001H19.5V23.1001C26.63 25.3276 35.37 25.3276 42.5 23.1001V49.5001ZM31 18.5626C27.9501 18.5626 25.025 17.9107 22.8683 16.7503C20.7116 15.5899 19.5 14.0161 19.5 12.3751C19.5 10.734 20.7116 9.16022 22.8683 7.99983C25.025 6.83945 27.9501 6.18756 31 6.18756C34.05 6.18756 36.9751 6.83945 39.1318 7.99983C41.2884 9.16022 42.5 10.734 42.5 12.3751C42.5 14.0161 41.2884 15.5899 39.1318 16.7503C36.9751 17.9107 34.05 18.5626 31 18.5626M65.5 16.5001L54 8.25006H65.5L77 16.5001H65.5ZM96.1667 16.5001L84.6667 8.25006H96.1667L107.667 16.5001H96.1667ZM126.833 16.5001L115.333 8.25006H126.833L138.333 16.5001H126.833Z" fill="#EE8383"/>
</svg>
