<svg width="184" height="99" viewBox="0 0 184 99" fill="none" xmlns="http://www.w3.org/2000/svg">
<path d="M153.333 37.1251H63.02C61.0061 35.9195 58.5676 34.941 55.8457 34.2463C53.1239 33.5515 50.1728 33.1542 47.1636 33.0775C44.1543 33.0007 41.1467 33.246 38.3149 33.7992C35.4831 34.3524 32.8835 35.2024 30.6667 36.3001C25.76 38.6101 23 41.9101 23 45.3751V82.5001C20.9667 82.5001 19.0167 82.9347 17.5789 83.7082C16.1411 84.4818 15.3334 85.531 15.3334 86.6251V90.7501H76.6667V86.6251C76.6667 85.531 75.859 84.4818 74.4212 83.7082C72.9834 82.9347 71.0334 82.5001 69 82.5001V53.6251H153.333C157.4 53.6251 161.3 52.7559 164.176 51.2087C167.051 49.6615 168.667 47.5631 168.667 45.3751C168.667 43.187 167.051 41.0886 164.176 39.5414C161.3 37.9943 157.4 37.1251 153.333 37.1251ZM57.5 82.5001H34.5V56.1001C41.63 58.3276 50.37 58.3276 57.5 56.1001V82.5001ZM46 51.5626C42.9501 51.5626 40.025 50.9107 37.8683 49.7503C35.7116 48.5899 34.5 47.0161 34.5 45.3751C34.5 43.734 35.7116 42.1602 37.8683 40.9998C40.025 39.8395 42.9501 39.1876 46 39.1876C49.05 39.1876 51.9751 39.8395 54.1318 40.9998C56.2884 42.1602 57.5 43.734 57.5 45.3751C57.5 47.0161 56.2884 48.5899 54.1318 49.7503C51.9751 50.9107 49.05 51.5626 46 51.5626M80.5 49.5001L69 41.2501H80.5L92 49.5001H80.5ZM111.167 49.5001L99.6667 41.2501H111.167L122.667 49.5001H111.167ZM141.833 49.5001L130.333 41.2501H141.833L153.333 49.5001H141.833Z" fill="#EE8383"/>
<path d="M85.8359 75H75.9453V57.5391H85.7305L85.9648 59.3438H78.3242V64.957H84.8516V66.8555H78.3242V73.207H86.0703L85.8359 75ZM101.902 75H99.4297L91.1094 61.207V75H89.0234V57.5391H91.4258L99.8164 71.5195V57.5391H101.902V75ZM115.297 59.3438H110.738V75H108.359V59.3438H103.895V57.5391H115.297V59.3438ZM129.395 62.3438C129.395 63.8359 129.113 64.9453 128.551 65.6719C127.988 66.3906 127.203 66.832 126.195 66.9961C127.695 67.3008 128.586 68.2539 128.867 69.8555L129.77 75H127.227C127.164 74.6406 127.09 74.1211 127.004 73.4414C126.926 72.7539 126.852 72.1758 126.781 71.707C126.711 71.2305 126.617 70.7266 126.5 70.1953C126.383 69.6641 126.227 69.2188 126.031 68.8594C125.844 68.5 125.617 68.2344 125.352 68.0625C124.93 67.8828 124.238 67.793 123.277 67.793H119.656V75H117.289V57.5391H122.621C123.184 57.5391 123.66 57.5469 124.051 57.5625C124.449 57.5703 124.867 57.5938 125.305 57.6328C125.742 57.6719 126.109 57.7266 126.406 57.7969C126.703 57.8672 127.004 57.9609 127.309 58.0781C127.621 58.1953 127.875 58.3398 128.07 58.5117C128.273 58.6836 128.465 58.8906 128.645 59.1328C128.824 59.3672 128.965 59.6406 129.066 59.9531C129.168 60.2578 129.246 60.6094 129.301 61.0078C129.363 61.4062 129.395 61.8516 129.395 62.3438ZM127.051 63.2695V61.6406C127.051 61.3438 127.043 61.1133 127.027 60.9492C127.02 60.7773 126.992 60.5977 126.945 60.4102C126.898 60.2148 126.824 60.0703 126.723 59.9766C126.629 59.875 126.5 59.7773 126.336 59.6836C126.18 59.582 125.973 59.5117 125.715 59.4727C125.465 59.4336 125.168 59.4023 124.824 59.3789C124.488 59.3477 124.082 59.332 123.605 59.332H119.656V65.9297H123.746C124.348 65.9297 124.844 65.8984 125.234 65.8359C125.625 65.7734 125.941 65.6875 126.184 65.5781C126.434 65.4609 126.621 65.2891 126.746 65.0625C126.871 64.8281 126.953 64.582 126.992 64.3242C127.031 64.0586 127.051 63.707 127.051 63.2695ZM143.609 57.5391L138.324 68.9297V75H135.957V68.9297L130.824 57.5391H133.414L137.223 66.4805L141.102 57.5391H143.609Z" fill="black"/>
</svg>
