<svg width="26" height="26" viewBox="0 0 26 26" fill="none" xmlns="http://www.w3.org/2000/svg">
<path d="M13 23.8333C14.1917 23.8333 15.1667 22.8583 15.1667 21.6666H10.8333C10.8333 22.2413 11.0616 22.7924 11.4679 23.1987C11.8743 23.605 12.4254 23.8333 13 23.8333ZM19.5 17.3333V11.9166C19.5 8.59081 17.7233 5.80665 14.625 5.06998V4.33331C14.625 3.43415 13.8992 2.70831 13 2.70831C12.1008 2.70831 11.375 3.43415 11.375 4.33331V5.06998C8.26583 5.80665 6.49999 8.57998 6.49999 11.9166V17.3333L4.33333 19.5V20.5833H21.6667V19.5L19.5 17.3333Z" fill="#4B525B"/>
</svg>
